<?xml version="1.0" encoding="UTF-8" standalone="no"?><svg xmlns="http://www.w3.org/2000/svg" xmlns:xlink="http://www.w3.org/1999/xlink" contentStyleType="text/css" height="640px" preserveAspectRatio="none" style="width:598px;height:640px;background:#FFFFFF;" version="1.1" viewBox="0 0 598 640" width="598px" zoomAndPan="magnify"><defs/><g><!--MD5=[8fc3522a43f8c7199df5e09e5bb0188e]
entity user--><g id="elem_user"><ellipse cx="240" cy="14" fill="#F1F1F1" rx="8" ry="8" style="stroke:#181818;stroke-width:0.5;"/><path d="M240,22 L240,49 M227,30 L253,30 M240,49 L227,64 M240,49 L253,64 " fill="none" style="stroke:#181818;stroke-width:0.5;"/><text fill="#000000" font-family="sans-serif" font-size="14" lengthAdjust="spacing" textLength="32" x="224" y="78.4951">User</text></g><!--MD5=[27c43deb04516661622ec53754f37fde]
entity datagen--><g id="elem_datagen"><rect fill="#F1F1F1" height="62.5938" rx="2.5" ry="2.5" style="stroke:#181818;stroke-width:0.5;" width="183" x="148.5" y="158.5"/><rect fill="#F1F1F1" height="10" style="stroke:#181818;stroke-width:0.5;" width="15" x="311.5" y="163.5"/><rect fill="#F1F1F1" height="2" style="stroke:#181818;stroke-width:0.5;" width="4" x="309.5" y="165.5"/><rect fill="#F1F1F1" height="2" style="stroke:#181818;stroke-width:0.5;" width="4" x="309.5" y="169.5"/><text fill="#000000" font-family="sans-serif" font-size="14" font-style="italic" lengthAdjust="spacing" textLength="66" x="202" y="191.4951">«python»</text><text fill="#000000" font-family="sans-serif" font-size="14" lengthAdjust="spacing" textLength="143" x="163.5" y="207.792">Fake Data Generator</text></g><!--MD5=[a6e63e5080b6098cbc36e97e7cf20a2e]
entity consumer--><g id="elem_consumer"><rect fill="#F1F1F1" height="62.5938" rx="2.5" ry="2.5" style="stroke:#181818;stroke-width:0.5;" width="153" x="79.5" y="421.5"/><rect fill="#F1F1F1" height="10" style="stroke:#181818;stroke-width:0.5;" width="15" x="212.5" y="426.5"/><rect fill="#F1F1F1" height="2" style="stroke:#181818;stroke-width:0.5;" width="4" x="210.5" y="428.5"/><rect fill="#F1F1F1" height="2" style="stroke:#181818;stroke-width:0.5;" width="4" x="210.5" y="432.5"/><text fill="#000000" font-family="sans-serif" font-size="14" font-style="italic" lengthAdjust="spacing" textLength="66" x="118" y="454.4951">«python»</text><text fill="#000000" font-family="sans-serif" font-size="14" lengthAdjust="spacing" textLength="113" x="94.5" y="470.792">Kafka Consumer</text></g><!--MD5=[7468467f3b6b392f1d176d828c753b77]
entity db--><g id="elem_db"><path d="M227,571.5 C227,561.5 291,561.5 291,561.5 C291,561.5 355,561.5 355,571.5 L355,613.0938 C355,623.0938 291,623.0938 291,623.0938 C291,623.0938 227,623.0938 227,613.0938 L227,571.5 " fill="#F1F1F1" style="stroke:#181818;stroke-width:0.5;"/><path d="M227,571.5 C227,581.5 291,581.5 291,581.5 C291,581.5 355,581.5 355,571.5 " fill="none" style="stroke:#181818;stroke-width:0.5;"/><text fill="#000000" font-family="sans-serif" font-size="14" font-style="italic" lengthAdjust="spacing" textLength="80" x="251" y="598.4951">«postgres»</text><text fill="#000000" font-family="sans-serif" font-size="14" lengthAdjust="spacing" textLength="108" x="237" y="614.792">ecommerce DB</text></g><!--MD5=[e29745d789d1cd237fb5892a53e7b9d1]
entity kafka--><g id="elem_kafka"><path d="M11,300 L119,300 C124,300 124,321.2969 124,321.2969 C124,321.2969 124,342.5938 119,342.5938 L11,342.5938 C6,342.5938 6,321.2969 6,321.2969 C6,321.2969 6,300 11,300 " fill="#F1F1F1" style="stroke:#181818;stroke-width:0.5;"/><path d="M119,300 C114,300 114,321.2969 114,321.2969 C114,342.5938 119,342.5938 119,342.5938 " fill="none" style="stroke:#181818;stroke-width:0.5;"/><text fill="#000000" font-family="sans-serif" font-size="14" font-style="italic" lengthAdjust="spacing" textLength="54" x="33" y="317.9951">«kafka»</text><text fill="#000000" font-family="sans-serif" font-size="14" lengthAdjust="spacing" textLength="98" x="11" y="334.292">Event receiver</text></g><!--MD5=[73a06388a3d0bcfd7e7ad679a483c079]
entity kafka_ui--><g id="elem_kafka_ui"><rect fill="#F1F1F1" height="46.2969" rx="2.5" ry="2.5" style="stroke:#181818;stroke-width:0.5;" width="94" x="269" y="298.5"/><rect fill="#F1F1F1" height="10" style="stroke:#181818;stroke-width:0.5;" width="15" x="343" y="303.5"/><rect fill="#F1F1F1" height="2" style="stroke:#181818;stroke-width:0.5;" width="4" x="341" y="305.5"/><rect fill="#F1F1F1" height="2" style="stroke:#181818;stroke-width:0.5;" width="4" x="341" y="309.5"/><text fill="#000000" font-family="sans-serif" font-size="14" lengthAdjust="spacing" textLength="54" x="284" y="331.4951">Kafka UI</text></g><!--MD5=[ebf734068562da922a6e4a4bbb1a99c3]
link user to datagen--><g id="link_user_datagen"><path d="M240,81.71 C240,105.46 240,135.87 240,158.25 " fill="none" id="user-datagen" style="stroke:#181818;stroke-width:1.0;"/><text fill="#000000" font-family="sans-serif" font-size="13" lengthAdjust="spacing" textLength="109" x="241" y="124.5669">Starts simulation</text></g><!--MD5=[a0e8fa1c826afa9934eb8a76ae9c1c16]
link datagen to db--><g id="link_datagen_db"><path d="M300.81,221.64 C330.04,239.77 362.47,265.65 380,298.5 C428.86,390.02 445.7,441.56 394,531.5 C385.13,546.93 370.6,558.76 355.21,567.68 " fill="none" id="datagen-db" style="stroke:#181818;stroke-width:1.0;"/><text fill="#000000" font-family="sans-serif" font-size="13" lengthAdjust="spacing" textLength="169" x="421" y="387.5669">Stores users and products</text></g><!--MD5=[374cbb6ff8f03508af4f392a85749577]
link datagen to kafka--><g id="link_datagen_kafka"><path d="M198.53,221.69 C165.88,245.85 121.28,278.85 92.81,299.92 " fill="none" id="datagen-kafka" style="stroke:#181818;stroke-width:1.0;"/><text fill="#000000" font-family="sans-serif" font-size="13" lengthAdjust="spacing" textLength="142" x="159" y="264.5669">Sends events to kafka</text></g><!--MD5=[64cb229ad34c6fd9608a5d22b15b65c1]
link kafka to kafka_ui--><g id="link_kafka_kafka_ui"><path d="M124.17,321.5 C166.47,321.5 222.89,321.5 263.58,321.5 " fill="none" id="kafka-to-kafka_ui" style="stroke:#181818;stroke-width:1.0;"/><polygon fill="#181818" points="268.96,321.5,259.96,317.5,263.96,321.5,259.96,325.5,268.96,321.5" style="stroke:#181818;stroke-width:1.0;"/><text fill="#000000" font-family="sans-serif" font-size="13" lengthAdjust="spacing" textLength="108" x="142.5" y="314.5669">frontend of kafka</text></g><!--MD5=[6eb45da44f7e74ed53dda46b211c7b94]
link kafka to consumer--><g id="link_kafka_consumer"><path d="M85.35,351.46 C98.15,369.67 114.81,393.39 128.75,413.22 " fill="none" id="kafka-consumer" style="stroke:#181818;stroke-width:1.0;"/><path d="M139.6768,414.0669 A9,9 0 0 0 125.8415 423.7975" fill="none" style="stroke:#181818;stroke-width:1.5;"/><path d="M74.2706,350.4013 A9,9 0 0 0 88.1093 340.6755" fill="none" style="stroke:#181818;stroke-width:1.5;"/><text fill="#000000" font-family="sans-serif" font-size="13" lengthAdjust="spacing" textLength="229" x="115" y="387.5669">Consume click and checkout events</text></g><!--MD5=[71545841c05e819f30d76f5d1acd7e49]
link consumer to db--><g id="link_consumer_db"><path d="M162.16,484.52 C166.5,499.95 173.62,518.17 185,531.5 C196.4,544.85 211.55,555.84 226.82,564.62 " fill="none" id="consumer-db" style="stroke:#181818;stroke-width:1.0;"/><text fill="#000000" font-family="sans-serif" font-size="13" lengthAdjust="spacing" textLength="203" x="186" y="527.5669">Store click and checkout events</text></g><!--MD5=[fcf8fe65e71216a5f5f59258a6da0236]
@startuml
actor "User" as user
component "Fake Data Generator" as datagen <<python>>
component "Kafka Consumer" as consumer <<python>>
database "ecommerce DB" as db <<postgres>>
queue "Event receiver" as kafka <<kafka>>
component "Kafka UI" as kafka_ui

user - - datagen: Starts simulation
datagen - - db: Stores users and products
datagen - - kafka: Sends events to kafka
kafka -> kafka_ui: frontend of kafka
kafka )- -( consumer: Consume click and checkout events
consumer - - db: Store click and checkout events
@enduml

PlantUML version 1.2022.7(Mon Aug 22 17:01:30 UTC 2022)
(GPL source distribution)
Java Runtime: OpenJDK Runtime Environment
JVM: OpenJDK 64-Bit Server VM
Default Encoding: UTF-8
Language: en
Country: null
--></g></svg>